<svg xmlns="http://www.w3.org/2000/svg" width="899.603" height="466.137" viewBox="0 0 899.603 466.137"><path fill="#2196F3" d="M51.829 434.527c-11.707 0-21.198-9.492-21.198-21.199V52.99c0-11.704 9.492-21.195 21.198-21.195h360.339c11.703 0 21.195 9.492 21.195 21.195v360.338c0 11.707-9.492 21.199-21.195 21.199H51.829z"/><linearGradient id="a" gradientUnits="userSpaceOnUse" x1="145.124" y1="230.688" x2="822.059" y2="-440.473" gradientTransform="matrix(1 0 0 -1 -26 352.322)"><stop offset="0" stop-opacity=".1"/><stop offset="1" stop-opacity="0"/></linearGradient><path fill="url(#a)" d="M118.358 343.914V122.406h49.897l92.797 92.801 34.845-92.801h49.742l87.725 87.725v203.197c0 11.707-9.492 21.199-21.195 21.199H208.971l-90.613-90.613z"/><path fill="none" d="M345.639 122.406v221.508h-38.336v-73.018l3.798-97.676-65.421 170.694h-27.529l-65.257-170.537 3.806 97.519v73.018h-38.341V122.406h49.897l63.888 169.782 63.753-169.782h49.742z"/><path fill="#FFF" d="M345.639 122.406v221.508h-38.336v-73.018l3.798-97.676-65.421 170.694h-27.529l-65.257-170.537 3.799 97.519v73.018h-38.334V122.406h49.897l63.888 169.782 63.753-169.782h49.742z"/><path fill="none" d="M-1.164 233.164C-1.164 104.389 103.226 0 231.998 0s233.161 104.389 233.161 233.164c0 128.773-104.389 233.158-233.161 233.158S-1.164 361.938-1.164 233.164z"/><path fill="none" d="M-1.164 233.164C-1.164 104.389 103.226 0 231.998 0s233.161 104.389 233.161 233.164c0 128.773-104.389 233.158-233.161 233.158S-1.164 361.938-1.164 233.164z"/><path fill="none" d="M-1.164 0h466.322v233.164H-1.164z"/><path fill="none" d="M-1.164 233.164V0h466.322v233.164H-1.164z"/><path fill="none" d="M-1.164 233.164V0h466.322v233.164H-1.164z"/><path fill="none" d="M-1.164 233.164V0h466.322v233.164H-1.164z"/><path fill="none" d="M-1.164 233.164V0h466.322v233.164H-1.164z"/><path fill="none" d="M-1.164 0h466.322v233.164H-1.164z"/><path fill="none" d="M-1.164 233.164V0h466.322v233.164H-1.164z"/><path fill="none" d="M-1.164 233.164V0h466.322v233.164H-1.164z"/><path fill="none" d="M-1.164 233.164V0h466.322v233.164H-1.164z"/><path fill="none" d="M-1.164 233.164V0h466.322v233.164H-1.164z"/><g><path fill="#673AB7" d="M486.358 434.527c-11.707 0-21.199-9.492-21.199-21.199V52.99c0-11.704 9.492-21.195 21.199-21.195h360.335c11.707 0 21.197 9.492 21.197 21.195v360.338c0 11.707-9.49 21.199-21.197 21.199H486.358z"/><linearGradient id="b" gradientUnits="userSpaceOnUse" x1="594.812" y1="225.84" x2="1224.907" y2="-451.086" gradientTransform="matrix(1 0 0 -1 -26 352.322)"><stop offset="0" stop-opacity=".1"/><stop offset="1" stop-opacity="0"/></linearGradient><path fill="url(#b)" d="M576.291 346.801V119.519h39.498l48.145 48.143 40.217-48.143h47.76l115.98 115.985v177.824c0 11.707-9.49 21.199-21.197 21.199H664.02l-87.729-87.726z"/><path fill="none" d="M641.555 248.613l-25.766 27.314V346.8h-39.498V119.519h39.498v106.624l21.857-27.014 66.504-79.61h47.76l-84.455 100.687 89.303 126.596h-46.832l-68.371-98.189z"/><path fill="#FFF" d="M641.555 248.613l-25.766 27.314V346.8h-39.498V119.519h39.498v106.616l21.857-27.006 66.504-79.61h47.76l-84.455 100.687 89.303 126.596h-46.832l-68.371-98.189z"/><path fill="none" d="M433.364 233.164C433.364 104.389 537.75 0 666.527 0 795.3 0 899.685 104.389 899.685 233.164c0 128.773-104.385 233.158-233.158 233.158-128.777 0-233.163-104.384-233.163-233.158z"/><path fill="none" d="M433.364 233.164C433.364 104.389 537.75 0 666.527 0 795.3 0 899.685 104.389 899.685 233.164c0 128.773-104.385 233.158-233.158 233.158-128.777 0-233.163-104.384-233.163-233.158z"/><path fill="none" d="M433.364 233.164C433.364 104.389 537.75 0 666.527 0 795.3 0 899.685 104.389 899.685 233.164c0 128.773-104.385 233.158-233.158 233.158-128.777 0-233.163-104.384-233.163-233.158z"/><path fill="none" d="M433.364 0h466.322v233.164H433.364z"/><path fill="none" d="M433.364 233.164V0h466.322v233.164H433.364z"/><path fill="none" d="M433.364 233.164V0h466.322v233.164H433.364z"/><path fill="none" d="M433.364 233.164V0h466.322v233.164H433.364z"/><path fill="none" d="M433.364 233.164V0h466.322v233.164H433.364z"/><path fill="none" d="M433.364 0h466.322v233.164H433.364z"/><path fill="none" d="M433.364 233.164V0h466.322v233.164H433.364z"/><path fill="none" d="M433.364 233.164V0h466.322v233.164H433.364z"/><path fill="none" d="M433.364 233.164V0h466.322v233.164H433.364z"/><path fill="none" d="M433.364 233.164V0h466.322v233.164H433.364z"/><path fill="none" d="M433.364 0h466.322v233.164H433.364z"/><path fill="none" d="M433.364 233.164V0h466.322v233.164H433.364z"/><path fill="none" d="M433.364 233.164V0h466.322v233.164H433.364z"/><path fill="none" d="M433.364 233.164V0h466.322v233.164H433.364z"/><path fill="none" d="M433.364 233.164V0h466.322v233.164H433.364z"/></g></svg>