<?xml version="1.0" encoding="utf-8"?>
<!-- Generator: Adobe Illustrator 16.0.0, SVG Export Plug-In . SVG Version: 6.00 Build 0)  -->
<!DOCTYPE svg PUBLIC "-//W3C//DTD SVG 1.1//EN" "http://www.w3.org/Graphics/SVG/1.1/DTD/svg11.dtd">
<svg version="1.1" id="Layer_1" xmlns="http://www.w3.org/2000/svg" xmlns:xlink="http://www.w3.org/1999/xlink" x="0px" y="0px"
	 width="899.603px" height="466.137px" viewBox="0 0 899.603 466.137" enable-background="new 0 0 899.603 466.137"
	 xml:space="preserve">
<g>
	<g>
		<path id="base_1_9" fill="#2196F3" d="M51.829,434.527c-11.707,0-21.198-9.492-21.198-21.199V52.99
			c0-11.704,9.492-21.195,21.198-21.195h360.339c11.703,0,21.195,9.492,21.195,21.195v360.338c0,11.707-9.492,21.199-21.195,21.199
			H51.829z"/>
		
			<linearGradient id="SVGID_1_" gradientUnits="userSpaceOnUse" x1="145.124" y1="230.688" x2="822.0586" y2="-440.4734" gradientTransform="matrix(1 0 0 -1 -26 352.3223)">
			<stop  offset="0" style="stop-color:#000000;stop-opacity:0.1"/>
			<stop  offset="1" style="stop-color:#000000;stop-opacity:0"/>
		</linearGradient>
		<path fill="url(#SVGID_1_)" d="M118.358,343.914V122.406h49.897l92.797,92.801l34.845-92.801h49.742l87.725,87.725v203.197
			c0,11.707-9.492,21.199-21.195,21.199H208.971L118.358,343.914z"/>
		<path fill="none" d="M345.639,122.406v221.508h-38.336v-73.018l3.798-97.676L245.68,343.914h-27.529l-65.257-170.537l3.806,97.519
			v73.018h-38.341V122.406h49.897l63.888,169.782l63.753-169.782H345.639z"/>
		<path fill="#FFFFFF" d="M345.639,122.406v221.508h-38.336v-73.018l3.798-97.676L245.68,343.914h-27.529l-65.257-170.537
			l3.799,97.519v73.018h-38.334V122.406h49.897l63.888,169.782l63.753-169.782H345.639z"/>
		<path id="base_1_5_1" fill="none" d="M-1.164,233.164C-1.164,104.389,103.226,0,231.998,0
			C360.77,0,465.159,104.389,465.159,233.164c0,128.773-104.389,233.158-233.161,233.158
			C103.226,466.322-1.164,361.938-1.164,233.164z"/>
		<path id="base_1_1_1" fill="none" d="M-1.164,233.164C-1.164,104.389,103.226,0,231.998,0
			C360.77,0,465.159,104.389,465.159,233.164c0,128.773-104.389,233.158-233.161,233.158
			C103.226,466.322-1.164,361.938-1.164,233.164z"/>
		<g id="Layer_x5F_1_1_1">
		</g>
		<rect x="-1.164" fill="none" width="466.322" height="233.164"/>
		<path fill="none" d="M-1.164,233.164V0h466.322v233.164H-1.164z"/>
		<path fill="none" d="M-1.164,233.164V0h466.322v233.164H-1.164z"/>
		<path fill="none" d="M-1.164,233.164V0h466.322v233.164H-1.164z"/>
		<path fill="none" d="M-1.164,233.164V0h466.322v233.164H-1.164z"/>
		<g id="Layer_x5F_1_2_1">
			<g>
				<g id="XMLID_x5F_1_x5F__1_1">
				</g>
			</g>
		</g>
		<rect x="-1.164" fill="none" width="466.322" height="233.164"/>
		<path fill="none" d="M-1.164,233.164V0h466.322v233.164H-1.164z"/>
		<path fill="none" d="M-1.164,233.164V0h466.322v233.164H-1.164z"/>
		<path fill="none" d="M-1.164,233.164V0h466.322v233.164H-1.164z"/>
		<path fill="none" d="M-1.164,233.164V0h466.322v233.164H-1.164z"/>
	</g>
	<g>
		<path id="base_1_13" fill="#673AB7" d="M486.358,434.527c-11.707,0-21.199-9.492-21.199-21.199V52.99
			c0-11.704,9.492-21.195,21.199-21.195h360.335c11.707,0,21.197,9.492,21.197,21.195v360.338c0,11.707-9.49,21.199-21.197,21.199
			H486.358z"/>
		
			<linearGradient id="SVGID_2_" gradientUnits="userSpaceOnUse" x1="594.8115" y1="225.8403" x2="1224.907" y2="-451.0855" gradientTransform="matrix(1 0 0 -1 -26 352.3223)">
			<stop  offset="0" style="stop-color:#000000;stop-opacity:0.1"/>
			<stop  offset="1" style="stop-color:#000000;stop-opacity:0"/>
		</linearGradient>
		<path fill="url(#SVGID_2_)" d="M576.291,346.801V119.519h39.498l48.145,48.143l40.217-48.143h47.76l115.98,115.985v177.824
			c0,11.707-9.49,21.199-21.197,21.199H664.02L576.291,346.801z"/>
		<path fill="none" d="M641.555,248.613l-25.766,27.314v70.873h-39.498V119.519h39.498v106.624l21.857-27.014l66.504-79.61h47.76
			l-84.455,100.687l89.303,126.596h-46.832L641.555,248.613z"/>
		<path fill="#FFFFFF" d="M641.555,248.613l-25.766,27.314v70.873h-39.498V119.519h39.498v106.616l21.857-27.006l66.504-79.61h47.76
			l-84.455,100.687l89.303,126.596h-46.832L641.555,248.613z"/>
		<path id="base_1_9_1" fill="none" d="M433.364,233.164C433.364,104.389,537.75,0,666.527,0
			c128.773,0,233.158,104.389,233.158,233.164c0,128.773-104.385,233.158-233.158,233.158
			C537.75,466.322,433.364,361.938,433.364,233.164z"/>
		<path id="base_1_5_1_1_" fill="none" d="M433.364,233.164C433.364,104.389,537.75,0,666.527,0
			c128.773,0,233.158,104.389,233.158,233.164c0,128.773-104.385,233.158-233.158,233.158
			C537.75,466.322,433.364,361.938,433.364,233.164z"/>
		<path id="base_1_1_1_1_" fill="none" d="M433.364,233.164C433.364,104.389,537.75,0,666.527,0
			c128.773,0,233.158,104.389,233.158,233.164c0,128.773-104.385,233.158-233.158,233.158
			C537.75,466.322,433.364,361.938,433.364,233.164z"/>
		<g id="Layer_x5F_1_1_1_1_">
		</g>
		<rect x="433.364" fill="none" width="466.322" height="233.164"/>
		<path fill="none" d="M433.364,233.164V0h466.322v233.164H433.364z"/>
		<path fill="none" d="M433.364,233.164V0h466.322v233.164H433.364z"/>
		<path fill="none" d="M433.364,233.164V0h466.322v233.164H433.364z"/>
		<path fill="none" d="M433.364,233.164V0h466.322v233.164H433.364z"/>
		<g id="Layer_x5F_1_2_1_1_">
			<g>
				<g id="XMLID_x5F_1_x5F__1_1_1_">
				</g>
			</g>
		</g>
		<rect x="433.364" fill="none" width="466.322" height="233.164"/>
		<path fill="none" d="M433.364,233.164V0h466.322v233.164H433.364z"/>
		<path fill="none" d="M433.364,233.164V0h466.322v233.164H433.364z"/>
		<path fill="none" d="M433.364,233.164V0h466.322v233.164H433.364z"/>
		<path fill="none" d="M433.364,233.164V0h466.322v233.164H433.364z"/>
		<g id="Layer_x5F_1_3_1">
		</g>
		<rect x="433.364" fill="none" width="466.322" height="233.164"/>
		<path fill="none" d="M433.364,233.164V0h466.322v233.164H433.364z"/>
		<path fill="none" d="M433.364,233.164V0h466.322v233.164H433.364z"/>
		<path fill="none" d="M433.364,233.164V0h466.322v233.164H433.364z"/>
		<path fill="none" d="M433.364,233.164V0h466.322v233.164H433.364z"/>
	</g>
</g>
</svg>
